<svg width="80" height="47" viewBox="0 0 80 47" fill="none" xmlns="http://www.w3.org/2000/svg">
<path d="M63.3534 28.0756V43.4864C63.3534 45.2857 61.8961 46.7431 60.0968 46.7431H59.9034C58.1041 46.7431 56.6418 45.2857 56.6418 43.4864V26.8413H23.431V43.4666C23.431 45.2659 21.9687 46.7282 20.1694 46.7282H19.8868C18.0875 46.7282 16.6252 45.2659 16.6252 43.4666V28.0161L23.3814 19.9067H56.5477L63.3534 28.0756Z" fill="#4CA9EE"/>
<path d="M23.3418 19.9067H23.3814L16.6252 28.0161V3.26161C16.6252 1.46228 18.0875 0 19.8868 0H20.0802C21.8795 0 23.3368 1.46228 23.3368 3.26161V19.9067H23.3418Z" fill="#29E7CD"/>
<path d="M63.3534 3.27646V28.0756L56.5476 19.9017V3.27646C56.5476 1.47712 58.0099 0.0198059 59.8092 0.0198059H60.0967C61.896 0.0198059 63.3534 1.47712 63.3534 3.27646Z" fill="#29E7CD"/>
<path d="M13.2943 9.86413V32.0163L7.43527 39.0501C6.90489 38.4701 6.58269 37.6968 6.58269 36.8542V26.8166H3.26161C1.46227 26.8166 0 25.3543 0 23.5549V23.2625C0 21.4632 1.46227 20.0009 3.26161 20.0009H6.54799V9.86909C6.54799 8.06976 8.01026 6.6075 9.8096 6.6075H10.0327C11.832 6.60254 13.2943 8.0648 13.2943 9.86413Z" fill="#29E7CD"/>
<path d="M79.9738 23.208V23.4657C79.9738 25.265 78.5115 26.7273 76.7121 26.7273H73.4505V36.8442C73.4505 37.7216 73.1036 38.5197 72.5385 39.1046L66.6597 32.051V9.86908C66.6597 8.06975 68.117 6.60748 69.9163 6.60748H70.1146C71.9139 6.60748 73.3762 8.06975 73.3762 9.86908V19.9463H76.7072C78.5164 19.9463 79.9738 21.4037 79.9738 23.208Z" fill="#29E7CD"/>
<path d="M13.2943 32.0163V36.8542C13.2943 38.6535 11.832 40.1158 10.0327 40.1158H9.84433C8.89262 40.1158 8.03012 39.7044 7.4353 39.0501L13.2943 32.0163Z" fill="#4CA9EE"/>
<path d="M72.5385 39.1045C71.9486 39.7192 71.1109 40.1058 70.1889 40.1058H69.9163C68.117 40.1058 66.6597 38.6485 66.6597 36.8492V32.051L72.5385 39.1045Z" fill="#4CA9EE"/>
</svg>
